<mxfile host="app.diagrams.net" agent="Mozilla/5.0 (Macintosh; Intel Mac OS X 10_15_7) AppleWebKit/537.36 (KHTML, like Gecko) Chrome/128.0.0.0 Safari/537.36" version="24.7.8" pages="2">
  <diagram name="Page-1" id="PGgDLmfhzdB9WM4vafAL">
    <mxGraphModel dx="1853" dy="586" grid="1" gridSize="10" guides="1" tooltips="1" connect="1" arrows="1" fold="1" page="1" pageScale="1" pageWidth="827" pageHeight="1169" math="0" shadow="0">
      <root>
        <mxCell id="0" />
        <mxCell id="1" parent="0" />
        <mxCell id="7rNaJxjuEnKGgDWBK811-16" style="edgeStyle=orthogonalEdgeStyle;rounded=0;orthogonalLoop=1;jettySize=auto;html=1;curved=1;sketch=1;curveFitting=1;jiggle=2;" parent="1" source="7rNaJxjuEnKGgDWBK811-15" target="snHPMFBs_P8VrZNWPwpD-1" edge="1">
          <mxGeometry relative="1" as="geometry" />
        </mxCell>
        <mxCell id="7rNaJxjuEnKGgDWBK811-24" value="Virtual Machine configuration" style="edgeLabel;html=1;align=center;verticalAlign=middle;resizable=0;points=[];fontFamily=Architects Daughter;fontSource=https%3A%2F%2Ffonts.googleapis.com%2Fcss%3Ffamily%3DArchitects%2BDaughter;fontSize=13;" parent="7rNaJxjuEnKGgDWBK811-16" vertex="1" connectable="0">
          <mxGeometry x="-0.0811" relative="1" as="geometry">
            <mxPoint as="offset" />
          </mxGeometry>
        </mxCell>
        <mxCell id="7rNaJxjuEnKGgDWBK811-15" value="" style="whiteSpace=wrap;html=1;rounded=1;sketch=1;curveFitting=1;jiggle=2;" parent="1" vertex="1">
          <mxGeometry x="-245" y="21.75" width="670" height="196.5" as="geometry" />
        </mxCell>
        <mxCell id="7rNaJxjuEnKGgDWBK811-5" value="" style="group" parent="1" vertex="1" connectable="0">
          <mxGeometry y="340" width="180" height="100" as="geometry" />
        </mxCell>
        <mxCell id="snHPMFBs_P8VrZNWPwpD-1" value="&lt;font data-font-src=&quot;https://fonts.googleapis.com/css?family=Architects+Daughter&quot; face=&quot;Architects Daughter&quot;&gt;AVD Environment&lt;/font&gt;" style="rounded=1;whiteSpace=wrap;html=1;sketch=1;curveFitting=1;jiggle=2;labelPosition=center;verticalLabelPosition=bottom;align=center;verticalAlign=top;" parent="7rNaJxjuEnKGgDWBK811-5" vertex="1">
          <mxGeometry width="180" height="100" as="geometry" />
        </mxCell>
        <mxCell id="7rNaJxjuEnKGgDWBK811-1" value="" style="image;aspect=fixed;html=1;points=[];align=center;fontSize=12;image=img/lib/azure2/other/Windows_Virtual_Desktop.svg;" parent="7rNaJxjuEnKGgDWBK811-5" vertex="1">
          <mxGeometry x="56" y="16" width="68" height="68" as="geometry" />
        </mxCell>
        <mxCell id="7rNaJxjuEnKGgDWBK811-8" value="" style="group" parent="1" vertex="1" connectable="0">
          <mxGeometry x="190" y="60" width="180" height="100" as="geometry" />
        </mxCell>
        <mxCell id="snHPMFBs_P8VrZNWPwpD-2" value="Image gallery" style="rounded=1;whiteSpace=wrap;html=1;sketch=1;curveFitting=1;jiggle=2;fontFamily=Architects Daughter;fontSource=https%3A%2F%2Ffonts.googleapis.com%2Fcss%3Ffamily%3DArchitects%2BDaughter;labelPosition=center;verticalLabelPosition=bottom;align=center;verticalAlign=top;" parent="7rNaJxjuEnKGgDWBK811-8" vertex="1">
          <mxGeometry width="180" height="100" as="geometry" />
        </mxCell>
        <mxCell id="7rNaJxjuEnKGgDWBK811-3" value="" style="image;aspect=fixed;html=1;points=[];align=center;fontSize=12;image=img/lib/azure2/compute/Azure_Compute_Galleries.svg;" parent="7rNaJxjuEnKGgDWBK811-8" vertex="1">
          <mxGeometry x="56" y="16" width="68" height="68" as="geometry" />
        </mxCell>
        <mxCell id="7rNaJxjuEnKGgDWBK811-9" value="&lt;font data-font-src=&quot;https://fonts.googleapis.com/css?family=Architects+Daughter&quot; face=&quot;Architects Daughter&quot;&gt;Session Hosts&lt;/font&gt;" style="rounded=1;whiteSpace=wrap;html=1;sketch=1;curveFitting=1;jiggle=2;labelPosition=center;verticalLabelPosition=bottom;align=center;verticalAlign=top;" parent="1" vertex="1">
          <mxGeometry x="-190" y="60" width="180" height="100" as="geometry" />
        </mxCell>
        <mxCell id="7rNaJxjuEnKGgDWBK811-10" value="" style="image;sketch=0;aspect=fixed;html=1;points=[];align=center;fontSize=12;image=img/lib/mscae/Virtual_Machine_2.svg;" parent="1" vertex="1">
          <mxGeometry x="-139.68" y="73.5" width="79.35" height="73" as="geometry" />
        </mxCell>
        <mxCell id="7rNaJxjuEnKGgDWBK811-13" value="&lt;font data-font-src=&quot;https://fonts.googleapis.com/css?family=Architects+Daughter&quot; face=&quot;Architects Daughter&quot; style=&quot;font-size: 15px;&quot;&gt;Session host configuration&lt;/font&gt;" style="text;html=1;align=center;verticalAlign=middle;resizable=0;points=[];autosize=1;strokeColor=none;fillColor=none;rotation=15;fontFamily=Architects Daugther;fontSource=https%3A%2F%2Ffonts.googleapis.com%2Fcss%3Ffamily%3DArchitects%2BDaugther;fontSize=15;" parent="1" vertex="1">
          <mxGeometry y="146.5" width="210" height="30" as="geometry" />
        </mxCell>
        <mxCell id="7rNaJxjuEnKGgDWBK811-18" value="" style="group" parent="1" vertex="1" connectable="0">
          <mxGeometry x="-413" y="340" width="180" height="100" as="geometry" />
        </mxCell>
        <mxCell id="7rNaJxjuEnKGgDWBK811-19" value="Domain to join" style="rounded=1;whiteSpace=wrap;html=1;sketch=1;curveFitting=1;jiggle=2;fontFamily=Architects Daughter;fontSource=https%3A%2F%2Ffonts.googleapis.com%2Fcss%3Ffamily%3DArchitects%2BDaughter;labelPosition=center;verticalLabelPosition=bottom;align=center;verticalAlign=top;" parent="7rNaJxjuEnKGgDWBK811-18" vertex="1">
          <mxGeometry width="180" height="100" as="geometry" />
        </mxCell>
        <mxCell id="7rNaJxjuEnKGgDWBK811-17" value="" style="image;aspect=fixed;html=1;points=[];align=center;fontSize=12;image=img/lib/azure2/other/Entra_Identity.svg;" parent="7rNaJxjuEnKGgDWBK811-18" vertex="1">
          <mxGeometry x="56" y="19.779999999999973" width="68" height="60.440000000000005" as="geometry" />
        </mxCell>
        <mxCell id="7rNaJxjuEnKGgDWBK811-22" style="edgeStyle=orthogonalEdgeStyle;rounded=0;orthogonalLoop=1;jettySize=auto;html=1;startArrow=classic;startFill=1;" parent="1" source="7rNaJxjuEnKGgDWBK811-21" target="snHPMFBs_P8VrZNWPwpD-1" edge="1">
          <mxGeometry relative="1" as="geometry" />
        </mxCell>
        <mxCell id="7rNaJxjuEnKGgDWBK811-23" value="ENTRA ID Credentials" style="edgeLabel;html=1;align=center;verticalAlign=middle;resizable=0;points=[];fontFamily=Architects Daughter;fontSource=https%3A%2F%2Ffonts.googleapis.com%2Fcss%3Ffamily%3DArchitects%2BDaughter;fontSize=13;" parent="7rNaJxjuEnKGgDWBK811-22" vertex="1" connectable="0">
          <mxGeometry x="-0.3029" y="1" relative="1" as="geometry">
            <mxPoint as="offset" />
          </mxGeometry>
        </mxCell>
        <mxCell id="7rNaJxjuEnKGgDWBK811-21" value="Azure Key Vault" style="whiteSpace=wrap;html=1;labelPosition=center;verticalLabelPosition=top;align=center;verticalAlign=bottom;fontFamily=Architects Daughter;fontSource=https%3A%2F%2Ffonts.googleapis.com%2Fcss%3Ffamily%3DArchitects%2BDaughter;rounded=1;sketch=1;curveFitting=1;jiggle=2;" parent="1" vertex="1">
          <mxGeometry x="414" y="340" width="180" height="100" as="geometry" />
        </mxCell>
        <mxCell id="7rNaJxjuEnKGgDWBK811-4" value="" style="image;aspect=fixed;html=1;points=[];align=center;fontSize=12;image=img/lib/azure2/security/Key_Vaults.svg;labelPosition=center;verticalLabelPosition=top;verticalAlign=bottom;" parent="1" vertex="1">
          <mxGeometry x="470" y="356" width="68" height="68" as="geometry" />
        </mxCell>
        <mxCell id="7rNaJxjuEnKGgDWBK811-27" style="edgeStyle=orthogonalEdgeStyle;rounded=0;orthogonalLoop=1;jettySize=auto;html=1;entryX=0;entryY=0.5;entryDx=0;entryDy=0;" parent="1" source="7rNaJxjuEnKGgDWBK811-19" target="snHPMFBs_P8VrZNWPwpD-1" edge="1">
          <mxGeometry relative="1" as="geometry" />
        </mxCell>
        <mxCell id="7rNaJxjuEnKGgDWBK811-28" value="Domain to join settings" style="edgeLabel;html=1;align=center;verticalAlign=middle;resizable=0;points=[];fontFamily=Architects Daughter;fontSource=https%3A%2F%2Ffonts.googleapis.com%2Fcss%3Ffamily%3DArchitects%2BDaughter;fontSize=13;" parent="7rNaJxjuEnKGgDWBK811-27" vertex="1" connectable="0">
          <mxGeometry x="0.1416" relative="1" as="geometry">
            <mxPoint as="offset" />
          </mxGeometry>
        </mxCell>
      </root>
    </mxGraphModel>
  </diagram>
  <diagram id="YnIKrpZ0EFSwjvwB5cYj" name="Page-2">
    <mxGraphModel dx="1026" dy="586" grid="1" gridSize="10" guides="1" tooltips="1" connect="1" arrows="1" fold="1" page="1" pageScale="1" pageWidth="827" pageHeight="1169" math="0" shadow="0">
      <root>
        <mxCell id="0" />
        <mxCell id="1" parent="0" />
        <mxCell id="1PGoATMkmUiRRUNQcuIm-33" value="" style="rounded=1;whiteSpace=wrap;html=1;sketch=1;curveFitting=1;jiggle=2;" vertex="1" parent="1">
          <mxGeometry x="737" y="135" width="90" height="70" as="geometry" />
        </mxCell>
        <mxCell id="1PGoATMkmUiRRUNQcuIm-27" value="" style="rounded=1;whiteSpace=wrap;html=1;sketch=1;curveFitting=1;jiggle=2;" vertex="1" parent="1">
          <mxGeometry x="369" y="382.5" width="90" height="70" as="geometry" />
        </mxCell>
        <mxCell id="1PGoATMkmUiRRUNQcuIm-26" value="" style="rounded=1;whiteSpace=wrap;html=1;sketch=1;curveFitting=1;jiggle=2;" vertex="1" parent="1">
          <mxGeometry x="230" y="382.5" width="90" height="70" as="geometry" />
        </mxCell>
        <mxCell id="1PGoATMkmUiRRUNQcuIm-4" style="edgeStyle=orthogonalEdgeStyle;rounded=0;orthogonalLoop=1;jettySize=auto;html=1;sketch=1;curveFitting=1;jiggle=2;" edge="1" parent="1" source="M9tZr0yQ1U2JP0jmh5cH-2" target="1PGoATMkmUiRRUNQcuIm-2">
          <mxGeometry relative="1" as="geometry" />
        </mxCell>
        <mxCell id="M9tZr0yQ1U2JP0jmh5cH-2" value="" style="rounded=1;whiteSpace=wrap;html=1;sketch=1;curveFitting=1;jiggle=2;" parent="1" vertex="1">
          <mxGeometry x="10" y="130" width="140" height="80" as="geometry" />
        </mxCell>
        <mxCell id="1PGoATMkmUiRRUNQcuIm-13" value="" style="edgeStyle=orthogonalEdgeStyle;rounded=0;orthogonalLoop=1;jettySize=auto;html=1;sketch=1;curveFitting=1;jiggle=2;" edge="1" parent="1" source="1PGoATMkmUiRRUNQcuIm-2" target="1PGoATMkmUiRRUNQcuIm-12">
          <mxGeometry relative="1" as="geometry" />
        </mxCell>
        <mxCell id="1PGoATMkmUiRRUNQcuIm-20" style="edgeStyle=orthogonalEdgeStyle;rounded=0;orthogonalLoop=1;jettySize=auto;html=1;entryX=0.5;entryY=0;entryDx=0;entryDy=0;sketch=1;curveFitting=1;jiggle=2;" edge="1" parent="1" source="1PGoATMkmUiRRUNQcuIm-2" target="1PGoATMkmUiRRUNQcuIm-18">
          <mxGeometry relative="1" as="geometry" />
        </mxCell>
        <mxCell id="1PGoATMkmUiRRUNQcuIm-22" value="" style="edgeStyle=orthogonalEdgeStyle;rounded=0;orthogonalLoop=1;jettySize=auto;html=1;sketch=1;curveFitting=1;jiggle=2;" edge="1" parent="1" source="1PGoATMkmUiRRUNQcuIm-2" target="1PGoATMkmUiRRUNQcuIm-21">
          <mxGeometry relative="1" as="geometry" />
        </mxCell>
        <mxCell id="1PGoATMkmUiRRUNQcuIm-2" value="" style="rounded=1;whiteSpace=wrap;html=1;sketch=1;curveFitting=1;jiggle=2;" vertex="1" parent="1">
          <mxGeometry x="274" y="130" width="140" height="80" as="geometry" />
        </mxCell>
        <mxCell id="1PGoATMkmUiRRUNQcuIm-3" value="" style="image;aspect=fixed;html=1;points=[];align=center;fontSize=12;image=img/lib/azure2/compute/Function_Apps.svg;" vertex="1" parent="1">
          <mxGeometry x="310" y="140" width="68" height="60" as="geometry" />
        </mxCell>
        <mxCell id="1PGoATMkmUiRRUNQcuIm-5" value="Deployment outputs" style="text;html=1;align=center;verticalAlign=middle;resizable=0;points=[];autosize=1;strokeColor=none;fillColor=none;rotation=-30;fontFamily=Architects Daughter;fontSource=https%3A%2F%2Ffonts.googleapis.com%2Fcss%3Ffamily%3DArchitects%2BDaughter;" vertex="1" parent="1">
          <mxGeometry x="150" y="110" width="130" height="30" as="geometry" />
        </mxCell>
        <mxCell id="1PGoATMkmUiRRUNQcuIm-7" value="Hostpool resource ID&lt;div&gt;Fileshare resource ID&lt;/div&gt;" style="text;html=1;align=center;verticalAlign=middle;resizable=0;points=[];autosize=1;strokeColor=none;fillColor=none;rotation=0;fontFamily=Architects Daughter;fontSource=https%3A%2F%2Ffonts.googleapis.com%2Fcss%3Ffamily%3DArchitects%2BDaughter;" vertex="1" parent="1">
          <mxGeometry x="250" y="60" width="150" height="40" as="geometry" />
        </mxCell>
        <mxCell id="1PGoATMkmUiRRUNQcuIm-29" style="edgeStyle=orthogonalEdgeStyle;rounded=0;orthogonalLoop=1;jettySize=auto;html=1;entryX=0.5;entryY=0;entryDx=0;entryDy=0;sketch=1;curveFitting=1;jiggle=2;" edge="1" parent="1" source="1PGoATMkmUiRRUNQcuIm-12" target="1PGoATMkmUiRRUNQcuIm-26">
          <mxGeometry relative="1" as="geometry" />
        </mxCell>
        <mxCell id="1PGoATMkmUiRRUNQcuIm-12" value="" style="rounded=1;whiteSpace=wrap;html=1;sketch=1;curveFitting=1;jiggle=2;" vertex="1" parent="1">
          <mxGeometry x="230" y="270" width="90" height="70" as="geometry" />
        </mxCell>
        <mxCell id="1PGoATMkmUiRRUNQcuIm-15" value="" style="verticalLabelPosition=bottom;html=1;verticalAlign=top;align=center;strokeColor=none;fillColor=#00BEF2;shape=mxgraph.azure.powershell_file;pointerEvents=1;" vertex="1" parent="1">
          <mxGeometry x="250" y="280" width="50" height="50" as="geometry" />
        </mxCell>
        <mxCell id="1PGoATMkmUiRRUNQcuIm-31" style="edgeStyle=orthogonalEdgeStyle;rounded=0;orthogonalLoop=1;jettySize=auto;html=1;exitX=0.5;exitY=1;exitDx=0;exitDy=0;sketch=1;curveFitting=1;jiggle=2;" edge="1" parent="1" source="1PGoATMkmUiRRUNQcuIm-18" target="1PGoATMkmUiRRUNQcuIm-27">
          <mxGeometry relative="1" as="geometry" />
        </mxCell>
        <mxCell id="1PGoATMkmUiRRUNQcuIm-18" value="" style="rounded=1;whiteSpace=wrap;html=1;sketch=1;curveFitting=1;jiggle=2;" vertex="1" parent="1">
          <mxGeometry x="369" y="270" width="90" height="70" as="geometry" />
        </mxCell>
        <mxCell id="1PGoATMkmUiRRUNQcuIm-19" value="" style="verticalLabelPosition=bottom;html=1;verticalAlign=top;align=center;strokeColor=none;fillColor=#00BEF2;shape=mxgraph.azure.powershell_file;pointerEvents=1;" vertex="1" parent="1">
          <mxGeometry x="389" y="280" width="50" height="50" as="geometry" />
        </mxCell>
        <mxCell id="1PGoATMkmUiRRUNQcuIm-84" style="edgeStyle=orthogonalEdgeStyle;rounded=0;orthogonalLoop=1;jettySize=auto;html=1;sketch=1;curveFitting=1;jiggle=2;" edge="1" parent="1" source="1PGoATMkmUiRRUNQcuIm-21" target="1PGoATMkmUiRRUNQcuIm-33">
          <mxGeometry relative="1" as="geometry" />
        </mxCell>
        <mxCell id="1PGoATMkmUiRRUNQcuIm-21" value="" style="rounded=1;whiteSpace=wrap;html=1;sketch=1;curveFitting=1;jiggle=2;" vertex="1" parent="1">
          <mxGeometry x="540" y="130" width="140" height="80" as="geometry" />
        </mxCell>
        <mxCell id="1PGoATMkmUiRRUNQcuIm-23" value="" style="image;aspect=fixed;html=1;points=[];align=center;fontSize=12;image=img/lib/azure2/management_governance/Log_Analytics_Workspaces.svg;" vertex="1" parent="1">
          <mxGeometry x="585" y="145" width="50" height="50" as="geometry" />
        </mxCell>
        <mxCell id="1PGoATMkmUiRRUNQcuIm-24" value="" style="image;aspect=fixed;html=1;points=[];align=center;fontSize=12;image=img/lib/azure2/other/Windows_Virtual_Desktop.svg;" vertex="1" parent="1">
          <mxGeometry x="389" y="393.5" width="48" height="48" as="geometry" />
        </mxCell>
        <mxCell id="1PGoATMkmUiRRUNQcuIm-25" value="" style="image;aspect=fixed;html=1;points=[];align=center;fontSize=12;image=img/lib/azure2/storage/Data_Shares.svg;" vertex="1" parent="1">
          <mxGeometry x="250" y="393.5" width="52.36" height="45" as="geometry" />
        </mxCell>
        <mxCell id="1PGoATMkmUiRRUNQcuIm-32" value="" style="shadow=0;dashed=0;html=1;strokeColor=none;fillColor=#4495D1;labelPosition=center;verticalLabelPosition=bottom;verticalAlign=top;align=center;outlineConnect=0;shape=mxgraph.veeam.2d.alert;" vertex="1" parent="1">
          <mxGeometry x="760.5" y="150" width="43" height="40" as="geometry" />
        </mxCell>
        <mxCell id="1PGoATMkmUiRRUNQcuIm-35" value="&lt;div style=&quot;text-align: center;&quot;&gt;&lt;span style=&quot;background-color: initial; text-wrap: nowrap;&quot;&gt;&lt;font face=&quot;Architects Daughter&quot;&gt;Log analytics workspace&lt;/font&gt;&lt;/span&gt;&lt;/div&gt;" style="text;whiteSpace=wrap;html=1;" vertex="1" parent="1">
          <mxGeometry x="530" y="95" width="160" height="50" as="geometry" />
        </mxCell>
        <mxCell id="1PGoATMkmUiRRUNQcuIm-36" value="&lt;div style=&quot;text-align: center;&quot;&gt;&lt;span style=&quot;background-color: initial; text-wrap: nowrap;&quot;&gt;&lt;font face=&quot;Architects Daughter&quot;&gt;Alert rule&lt;/font&gt;&lt;/span&gt;&lt;/div&gt;" style="text;whiteSpace=wrap;html=1;" vertex="1" parent="1">
          <mxGeometry x="750" y="100" width="160" height="50" as="geometry" />
        </mxCell>
        <mxCell id="1PGoATMkmUiRRUNQcuIm-37" value="&lt;div style=&quot;text-align: center;&quot;&gt;&lt;span style=&quot;background-color: initial; text-wrap: nowrap;&quot;&gt;&lt;font face=&quot;Architects Daughter&quot;&gt;PowerShell scripts&lt;/font&gt;&lt;/span&gt;&lt;/div&gt;" style="text;whiteSpace=wrap;html=1;" vertex="1" parent="1">
          <mxGeometry x="472" y="291.25" width="65" height="27.5" as="geometry" />
        </mxCell>
        <mxCell id="1PGoATMkmUiRRUNQcuIm-39" value="&lt;div style=&quot;text-align: center;&quot;&gt;&lt;span style=&quot;background-color: initial; text-wrap: nowrap;&quot;&gt;&lt;font face=&quot;Architects Daughter&quot;&gt;Ask AVD for status&lt;/font&gt;&lt;/span&gt;&lt;/div&gt;" style="text;whiteSpace=wrap;html=1;" vertex="1" parent="1">
          <mxGeometry x="360" y="460" width="65" height="27.5" as="geometry" />
        </mxCell>
        <mxCell id="1PGoATMkmUiRRUNQcuIm-40" value="&lt;div style=&quot;text-align: center;&quot;&gt;&lt;span style=&quot;background-color: initial; text-wrap: nowrap;&quot;&gt;&lt;font face=&quot;Architects Daughter&quot;&gt;Get fileshare usage&lt;/font&gt;&lt;/span&gt;&lt;/div&gt;" style="text;whiteSpace=wrap;html=1;" vertex="1" parent="1">
          <mxGeometry x="220" y="460" width="65" height="27.5" as="geometry" />
        </mxCell>
        <mxCell id="1PGoATMkmUiRRUNQcuIm-73" value="" style="shape=image;verticalLabelPosition=bottom;labelBackgroundColor=default;verticalAlign=top;aspect=fixed;imageAspect=0;image=data:image/png,iVBORw0KGgoAAAANSUhEUgAAAQAAAAEACAYAAABccqhmAAA9iklEQVR42uy9CXQb5dU/fLWNttFiybLkWI6VOGSDgGkLCWtFgaS0BZIC7Zu3LTjQ78/pv0vs9nSBljr++N5CW/oqebudtEACfVsKFJJAW0jYHCCQACWhQBIncWLHdrzI2neNlu88jyzHcRzPjKxlJD2/c3QSyGg0Gs39Pff+7n3ulQJBVeLafYHV3rGYA/1dXytvf2W5Zju5K9UHEbkF1YXr93haAuG0Y6Q/aI+4A/j/KQ0aMDfSXRqVqP2lK2oOkLtECICgwvDp1zx6kRQ6hk6G2zwjQVD6B/ALIaK14leNmYb6uaqN6QR07r6mxkvuGiEAggrAZ/Z52lyDsY6RU2G9xO8E2n0MxInoGcekpAoIGhZAUmsC8xyV19gg73x1ec1GcvcIARCUa5z/tsce9CW2DJwI2lIBH6jdPSCLzrywMwo9hAzNINbowDqP7qV10nWvXFbTRe4mIQCCcnH33/bYmEjSMdQbWh3yRoB294A8OMzrHDHaAkFDM6j1Sqi3qbfLlJL23ZfV9JK7SwiAQMBxfgpSbV5XrGN4IIxjfJW3D0SpRE7nS4ulENY3YX3AYlWB3ijvFIN4I9EHCAEQCC3O3+Nq9TgZx1B/SC8OeUDj7D4rzs8VKakCAqZFkFLXQH2j2ltjkrW/eoVxK7nrhAAISh3nv+G0+3ypjtFTYXvcHwLaeZg1zs8VjEIPQdNioLRqqJuj6tLpxJ2vXGUi+gAhAILiu/sn9HGGdrhGoq3e0dC4u1+cED2st+GwQF+nBqNZsZWSJTp3X1NP9AFCAATFwDV7XBuGB6Lr3SNRvcw3BGr3sZzj/FyRFkshZFgAjK4eDGaF12JVbHrtCuMG8usQAiAomLs/ttrtZhwjgxFb2ufGhi+NB0t6TQmKxkQg0hnA3KDsNRhk7a9cVUvKigkBEOTP3R+yRaLiLaODYXvEE8TKPt+0XqERoy04Y6CsoaGuQdWlVKTWkbCAEADBLOP8ZErd4RqJtjlHYjjGV/oHi+7u8wkLItoGrBGYzHIwmhUbJeJQ5+5r5pG0ISEAAj74zOvOttHheIdzOKKXBKYv3xUqJsqKNSYwWZTeOgvV+erVJlJWTAiAgIO7bw8GwTF0MtySCvhxnF+otF6hkSkrXgBijRbq56oO0DS0776mnqQNCQEQTBfnx2Mix8ip6OqAOzLu7g9UxHeLaK04LNAYlGCeo9hOydPtRB8gBEAwHucnEoo2r4vpGDkVm8jnCzXOn40+kK0fMM+Rg94o65RKoxuJPkAIoIqNf7TV7Yp3jA5GbLh8d6y7bOL82egDgdpMWXFdg7LXYKQ6d19TR8qKCQFUleG3BLyMwz0Ww2k9tbsHqPBYVd2DuKoWbztW1tBgqJV3afTiTqIPEAKoeHc/lVQ4hgdjrV5nGKf0ilW+K1RkwoIG0JtUYGmQbxVLou0kLCAEUHG45rWhDUODzHrPWGy8fLen4uL82egDyBtgdPVQUyv31jfINr12TT0pKyYEUAGr/ktDdr8/uWXkVNSW9rtxFV+5pvUKDUahx9WEIq0BzHMUvVqtZN3u60lYQAigHA3/hSFbPJ3ecqo/Yg/7Y7iQR2jlu0JFphvRAlBp5TCnUdlFiUTrdt9A0oaEAMrB8Led0CeUVIdrNN425mQm8vnE3ecfFmTrB2pNMjDWURulkXjn7jVEHyAEIFTjf2WwdczJOMaG4+Pluz0Vn9YrNDJlxc24rLjWQnlrTbL23dc2kLQhIQAhxfn99kAAHKPD0RYmEAZ6rJvE+QXQB4K1i0CmUUGdRXFAo4H23dc3En2AEEAp4/wTtnhC5hgZia0OeKKg8vRVTPmuUIHDgpom0NQowGyWb6ekTPvuG+YRfYAQQHHj/DglbfO4E+vHRuN6XL7r6SNxfhH1AUQCiAxq6yhvjUG6iYonNhJ9gBBA4Y1/Z/9qlzvhcDkZW9rvwep+qbvyVCsSFI2zBSJtDRhNsl6jkercvZLoA4QACmH4u060hEISx+hI3B71hvA2XXmVle8KFTFcVrwAFHo11JmpLrU62b575Twy5JQQQH7c/QQldYwMx1u9riioith9txhYs3whrF6+aOK/G4w0NBg0+O+HB1xw+/88D4FIvCy+S1hvg7DWCnqjAswWaqs0nmgnYQEhgFm4+yfbhoeZDo87oZf5hrHhSyoorXfpeXPgse98YcZjEAnc8+cu/Gc5IClVYCJgdBaoMUi9Fousc/equaQbESEAHob/wgl7IAxbhgbjtlQwgPP5lZbWW2w1wuPfuRE0Sor1WOQBIE+gXEgAsmlDQzOIaQ3UN1C9GhWs233DPJI2JAQwo+HbYox4y6nBuD0cyJTvKoIjFfc9FzcY4fH13Ix/MgmsefAZGHQHyuq7RmlzpqxYI4c5DVSXXJZaR9KGhADOwEXbTuhVYmhzu5MdY2OJifJdcQWm9ZDRP77+JuwB8MG2fd1w75/KcwFNTS4rrpWCwSDpDKdg4wdEHyAEcNULJ1o93pRjdCiRGao5drhiy3e1ORr/O0dPwe2bni/775/pRrQ4042oXuqt0Yvb37hh3lZCAFWIK144YQ/50w7naKKFCYaBHjtc8eW7v/0/q+DaC2283oMzAZueA3+ZZAI46wO1i0FGq8BUJz2g1ora91SpPlB1BLB82wlbKpVGrn5rwBuvqO67M+GBr9lhzaR0X7Ua/2RMdCvWUyg02CoWizr3rakufaCqCOCyHT0b3O70eo8nUVVdee695XK4/ZplvN6Dlf9Nz8GhMlL+c8EZ3YhqpF6DQbQpnBJXjT5QFQRw5T9PrA6gOH+UsaUDHmz41VK+i1Z9tPoT458ZmSGnzSDS1EBdnaxXoxe3v/m5edsJAZQxLv/HkZZ4SOoYdTL2qC+My3epcPU81GtW8Dd+hNs3Po+Fv2pEXGXMlBXrVFBnknVR6kT7W59feIAQQBnhom379SqxtmN0JNnmc2eGbVRbV54l1lrYds+tvN93z59eg217u6Gake1GhF46gxzqzJKN4ZS/84M1F3sJAQgcV/29p21sLN3hcjF6SWCsrIZq5tP4H2+7iVehDzH+s3F6yGktGI0yb22tqPONLzRvJAQgQFzx/FF7OCTaMjSUsKVDgbIeqjkbaJVyeOX+r/A2fmT4iAAIzkZ2yKlIrYH6emmvSp1et+fG87oIAQgAy7cdsqWTMsfwcGJ1OMhUdfddZPxo5edd5UeMnxMmuhXTMrBYpNtFEqZ935olvYQAShTnK1J0m9+f6hh1JseHalZ3V54HvnYNFv744PCAC1Y/8DSxbh76QFif6UZUZ5KAVivujIqDG8tVHyhLArjquSOtHq/IMeJk9JKQFzTO7qrvvotW/3d+tY638d/ueA78kRix7Bz0gYBpESTVejCbZN4afbr9jZsWbiUEUMg4f9tReyCU7hhzJe1MKIINn3TfzeC6i+bBb+5exfn4QVcA1vzsb8T486APICKQqZVQa5R0adSizj1rykcfkJaLuy+Nqx1DI8lWnyeOu/JovH3k6ZsEPnF/IBKDb21+kRh/HoAWIEP/PhwWDIatdl0NZf/kk0e2SqlkZznoA4L3AK7Y0b1h1Anrvd4k7spDu4+R7rvT4PH2m3GHHy7Gj9z+QwOkn2Eh9IGgYQHuRqTXS7x1Jti05+ZFGwgB5IArt3Wv9gVFjlFn0gYB0n2XDe/+6k7QKOWsx93z+Ksk119gZLsVg6YG6kySXh2dbn9zzaLtJATggOXbDtniEfGWvoGUPeqP4N16CjJUc0Y0GDWcjB/G9/YTFNio4kHQDx+AaNACwxGbzatVbrv4L91dlDK1TmhhgVRIcb4ioexwO9NtLk8S1N5eqPGRoZpcwMX1z7r/g2MBcsOKBEVgGOShMYgErdAXttmNNaITy58+vDEqjQimrFgsiDj/me62mFt54nhvsi0wOAqG/r2g8vQS4+eIxdZaTsftO0JW/6LH2KkEfpbRM42ebfSMo2cdPfNV7wFc8fQheyAqchzrTbSkQ8Ezuu+mybPDGUs4EsDhgTHB3Vfcpuy7N8Phfhf86PFXK/Y3EieioB35GBifHtyRZr3HSzsu/NPhOzSKdPue25Z0VRUBLH/ikC0hEjkGRlKrg/7q6cpTsBBg4RweHoCwKOCBOz6DCQy9NCoK7nns1YpOT8qiHtCfeg9XEg7GbC20VvbaJ/96eLs0nW7ft7b4+kBRswAXbdmvpxRUmz8o6nC60uPlu8TVn+3qv/3HX+J07CXffURQxvXg7Z+BNZctPuP/HRoYg9v/e0dV1ChkyoptmAxMRhFo6XRnPBrf+MG64ukDRdMALn/m49Z4Sr6/tx86vIMeMAzsxTv2iPEXZ/UfdAUEZVT33nblWcafJTQUElSLPoBsANkCsglkG8hGkK1UTAhw+VMftwTCIkf/QNoeDUTGu/KQIpRix//vHBkUzDUjw7/jMxfO+jtVkj6gGz4AcVUtjMUX2IJBxZZlWw/eoVUnO/fctqyrLAkAuftKldwx7Ey3+nwMdvdrvGQgS76xuJGbsQil8g8ZP3L9Cc4GWhjRC4UFp0JWe0gnta948uDWSDjWXqiwoCAhwGVPf7whFKdO9PSmWqOnhibSelh/Iq+8vriulof6XYK4Vs7GX8W/aTZtiGwH2RCyJWRTgvcAlj/xoT0YEW853pe2QcALtLeP7NYTQPwvhBBgSSO/2F6rosAfjlftbytKJYAe6wYmOAKBcJM+ENB3nP/ox3fQytS6fWvzFxZI82P4+23JJLVlcCRtj4SquytPMbF8YQMP97906T+tSo6NX8uxXBnGi5uEpFuUCrKoB3TDHogFLTAcW2BTqqWvfep/P+6SSOLr9q29uFcQIYBYLG093p+2xwJRqDn1HjF+gcX/pTSkjPGv5mX8BGcD2RSyLWRjyNaQzQlOAxClk+CZ8yncO42gCG415/h/rKTGz1fVRx4LWf3PBLIpZFsisVi4GoDG2wuMXAOhmmaI0hZc5EM0gMIZV4NRw+nYwyXKANx725U5Gf/t/72d/MDjYBR6nBVIyjWgjAdAmoyBX2XO2/nzQyepFEA6jaNMaSwAWvcRkCTj4K+7AILGRZAWSYlin+fX4oZaXoaIXfAiXt+Dd1w7baHPTBh0BeD2X20HfyhW9b8vshlkO/66C0EskQIdcYI0GR3/x3TG5oQWAkyGIuwErfsYpGQKcFuXYxYjyKMAuKiB87GXLmzIxOGq4sTh377xUt7G7w/H4Ju//yf+s9qBbAXZTFKpAzrmBDlTuEY4+SWAKSwmSiVB5T8Fav8gxNUm8FiX42ongtljYMzPTy9orIXtP/ky/rOQQIb/rS9cwtv4kdtfKq1CKEC2gW1EWw8qJgDKmB9EqfTZHoJgCeBcQgMTAtrbC/KIGwKmxeCzXITbKhPkjlxEsgajJiPKFYgErmuZBw+2Xsv7ffc89kpVGz+yBWQTAdNSoFJxUEU9OIQuBvKnAUznAkx5UVEPaF1HQZJisIsTMjRDWiwhAX0Or0GXH7a9fTgn8RCRADLWfF2LVkXhlf+BO/gb/4+2vgIvHzhelb8hevaRDSBbEEtkQEedIEtEeNrcLBfnYrOdKJ0ERWgUk0FEXQ9u6wrSDyAnV3sJ7zh7Mgn89hufw8a37e1DOZ/j2ovmYyK5rmV+Tuf4zd/fyfnzyx0RrRXH+pJ0EujIGIjTyZJchzS/AgAP1yPJgNp/EhIyNYR1cyFGm0Ht6iFpQw5YZNHl5GpPBTqHVknBY698wN3oW2Zn9Flse+sw/Pq5d6rut8ODRo3NkJIpQRX35+jqp4VFAKlZXJKUCYHWfRRiSgP4LBeALOIB2tVT9aO+zgUNJYXfffumvJ3v3i9fBYsbTfCjrS+fQzfQYoP/4uVL8qYdPPvW4XN+XiXH+UFjMzBKI1b1VZGxWS21KUF5ALgOQDIrYpKH3UBFfBBRm3BMpPL24bCANAw58z7/7lufB6tJl9fTfvHyTCjxs6fewIp8IYw+i0P9Y/hzqgVpsXTc3W8CeSIMmqgTROn07J3tctUA2PQBVXAY5FEvhGkLDgsQEZC9BeOr9W1XwvLFjQU5NyKBrLEXKkuAjP9rv9pWNbn+GG3Bhi8Si4GOuUAiwMUszwSQn9hEkoiAxntivKx4PkRpM+4kVM2Tga49vxFaV32C07HHB8dgfgN/Iy5kjQAy+q/96tmqMP4ERUPIsACX7yriAZDFhfudBT0cVBYLgC4WgKi6Dnz1F4M85KzKPoKLG4zw869/ltOx3/7Fk5gALls2D9q/ci2oBbALr1qMH7n7yPBjajN292cT5xcLeaoDKOxFKkKjoPX0YCHFbV1RVWXFGoUMHrzjM6BVsxdOOf78CjZ+hLc/PAE/+vV2CJW4EWjW+Cu90CdTvrsCUgod0FFXQct382lzYigHBsimDQODQPsHMlsjrStwSqXi4/5bLoelNvbt1S+/cxi/poYC6zr/VBISGHT54bFXDsDN9/+1oo0fPYPoWYxprZny3bi/SDl9oYmA6eI0nZHGQ6B190BcoQd/3TK8+1Azdrgi04a3f/p8uOXTF3KK+f/w7JvT/hsyfvTvyxY0FMXoX95/HJ5961DFr/jIGw3ULoaEXAcKJgBU3FfEWEOQGkBxW05RUS/WCGIqA04bZoaM9FWMPnDpAgv85KvsDTSRgf9/D//znKu82aApqPFXk9HDxDCPJpzaUyRCoIyNzj6tV0Jbk5ZJBDAtMmXFTkwGIU0DuGkLni9Y7mlDXOzzrRs5HXv/wy/AiPvcE39XLJtPjD5PQKFn0NAMEkiBpoTlu/m0OWl+r6Y0jSfFyThOGyZkapw2jGgbcLagLMuKU2n43x/cwkn0+8uL78KHx2beFXiz/aICGL0Tqgm4fNewYKJ8V5oUQrfiCiwEmvWXYUKgcx+BmNIIfvOyTFmx+1hZ6QP33Ho5LGmqYz3u7Q9PwJ9fmLmWHrn+KATIFcjQkcEjw0cEUG3A5buGBRPlu/JI5Xk70kr84eQRFw4LwuONFJX+gbIoK16zfCGsu4G9mQZy+R1/foX1uOuWz7xb0B+KwuEBF1w6qbtQtRs9TCrfRS9ZislP+W4lE0BqfDeQoG5ROgmqwCAkpQqIqC0QU1sEPZdw8RwD/HitnfU4NtEvC7VSDtddOjMBvPSvY3DP+Ez+5YussK+bbMmOq2qxuy8Si0EV902U7wrr2c7bVoB8agDCZEhJIgq0rxcYSgPB2oUgiTeA2t0jqLJijUIGv/v2jZzi/j88++ZEsc+Mq/+l7L0Ctr11ei9+tRt/pny3OVO+ywRAygi5ajEtUA1AwF6SLBYAaTyM04a++pbxsuKe0ocFqTQ82Hodpx1+O3Z/cFaxz7nAJv4NOH3wzrGhql/xM+W7zbh8l0qEQRF1Vay7XwQNQNg3TpROTOlGdHrbcanwrRsvges/dR7rcTMV+0wFF/Fv6673q974s9t0JekkqKOu0qb1ypoAUuX1pSd3I4poGyCqbcCDGIudNrxkvhm+s+ZyTnH/j37NfVgGm/iH3f8c+glWChiFHoK1iwDEUly+K0mW4RBSYdYBlBn7MSHQeMbLis0XFLWsuMFAw+/Xc5uWe//DL3Cu5+ci/j3z+kcQiFbf5N2p5buyYpbvCpQBpNXh/M+MbFlxRG0Cl3UFqL29oPQVLm2Im3L+389zFv3Yin3OWP25iH97Dpb3D5ZDnB/RWSGkt+FtunSZp/XSwtQAyvuJynYjUkRcuKw4jMICVw8oClBWfM9tV3La4ff2hyew8McHnMS/o6cARKKqMP4obcG9+DLlu84KifOFuBcgDRWxqogTDGg8vWeUFdPu/HUrXn3peXDL1RewHnd8cIxTsc9kcBL/XnyvKowfx/mGZoGV7+bR/okGUHh9QOc+ClG1CXzmC3DaUOXtw3UFuWJRfQ384u7PsR6H4n1k/Hz38RPxD3DhV1jfNNGVpxLLdwWpAVQqFCEn7lgcps3gmfNJUPkH8SATvtDIpZxFv8mdfbiCk/i3+98QiFVuO7Ww3oZDt0ov3wVhagAAlaosidIJ3I0Iry60ZaJJqZxrWXE6jXv5cy32QbE/X3Cv/Ku83yg2qXxXPal8l6BIBJBKVcfNQu6/xtuL04ZB4yJcSMKlW/G9X7oKli9hb+f94bFBzsU+U8FF/NtXYeLf5O67ciYEVDxSNYYrsL0A1YXT3YiM4B3fbYjCgunShtddaIN1n/0Up7j//odfyOl6qk38y3TlsWW68jAhUFZZ+a4AQ4BUxWQBuIcFSVAER4GKeCCsrgd3w9lDTpdYazm3855NB18u4t+zyP2vgN8nO1RTmk6WvitPyRgQiAgoFIiTDNDZIadaK0S1VqDHDoMBwvDgndfxbufNF5zEv67yF/8y5buLJ8p3pak4efgEQwApqK7lf7obyYTw7IKY0oDLin9xrTbndt68Vn8O4t+zZTyCO9OV5/RQTXmcTI/ONAQgGoAgIY+44e6LtfClKxeyHstnh1+u7j+u/DtSfuJfQYZqEhRQAwDiBSAsn2eAn669gvU4rp19ZsL8hlrWGYAZ8a+8fptM990Fwui+K1zfSHgeQLWbv1Ymgs3fuI7TsSjun6mdNxdw6fj77FsHyyrOD+ttOK2njAdAmoyR56psNIBq/5VSSXii7fOgVVKsh/7lxXdzKvaZDLVSjgeAzgQs/kUTZeHuZ4dqUskwKCNjxDLZVlqiAQgL9910ESydyz5em0s7by5Axs82+fflD04I/r5l8/nSNAN0jMT5ZawBpKvWC7jlk41w56oW1uO4tvPOh/s/4PTBy/t7BCv+ZbrvNme67zL+8uzKUwEuAPEAZoklFhp++qXlrMflQ/TLgov49+wbHwnS+DNdeRZN6soTIQ9RRWgAE8xUPdDKJfDQVy/LazvvfKz+kK38E1icnx2qKWdCZd+Vp/RMKiACqEoNMJWEX37lClhqM7MeOttin8ngIv699N4RGHQFBHOrkNGH9E24fJcmaT0BBQCkIUjOWP/ZC2DlJ9gn7+bS2WcmcBH/nn3jY7wFudTA5bvGBZXZladCXACiAeSA5U16aLuJ2w4/Pu288+H+D4x44OUDx0sa/yelCggZF0C8godqEg3grBigOrIA1hol/OH/Xs/pWD7tvLmAk/j35sGSGX+2fDeULd+NjJI4vyA3muwFKFncv/nrVxWknXc+Vv8MAXxcklsTpS1Y5BOJxUBHXaQrT1V5AFWiAfzyKys4iX65tPNmAxfxb9c73TDoKe7Q0wRF4916eKhmPACyeIxYFdEAKg+3fKIBbr2SfettvkW/LDiJf3sOFi0KmzxUE7n7KhLnV7kGUMFYUqeCh+76DOtxubbzzof7X0zxL1O+m+m+S1fpUM0KcQBIV2A2aGUizqLfbDr7zAQu4t9fDrjA07gCdyMq1JDTs7rykLQe8QDOsP1Ks/9UCjZ/ZyVYTVrWQ3Nt552P1R/h+a5/gSKmBH/dsrwPOZ06VJMq66GaFYC04AigMmOA9auWwopFc1iPm007bzZwEv/ePQoDvhhQEJvoVuy2rpixWzHXOH+i+24iBEqyW6/iYgCiAZwD159vgbY1l3KK+3Nt580FXMS/v71z2vPA3YpDo0BFPXjIqZu2AO0+BnKeQ05JVx6iAVRt/L90jg4ear2a07GzaefNBaw9/0Y88NKHpwDE4jP+vzjJ4CEmk4ecqjkMOUVxfqhSh2qSGKAwBFBJDoBWScEvv7qi4O28ucBs0OChHzOu/nt7zjL+M37g8SGn2W7FsogHTzueqg9M7b5Ljaf1iMNf0Q4AaQo6FffdvKzoO/zOBS7i3zN7j3G67/KIC080CtMWPORU6R+YGGKCYnzclQen9UicTzSAXK6lArIA666cD7defT7rcflo583J/Wfp+Y/FPy/38EOUToLaf3rIaUydmVuAu/KQoZrlFQGQvQD5xRKzGn76latYj8tnZx8242cT/3Z9PDSrz0BEgB8CMmWnakEIAMX9lAj++sObOB2bj3benAiARfzzh6LwzNszx/9nLRwiCV75GYrG7r9M7MFinzidgrDSgIlAEQ+QEIAQQK4xQDmGUil44ns3Fq2dNxdwEv/ePsbL+GNKA0TUdVgErDn1HhYBw3obTu8pQk6cNgyrLRBU1GZEwESYWEcVxAB50wDKVQL46S2fLGo7by7gIv49+vJHnO43TgNq5oA4GQPtyIdnpQGzv5soyYDa358ZckqbIaasBSVJAwrW/MlegDzg1kua4M6VF3I69rJl8+Afm74pmGt/88H/yOFd11ScMRw85Qd/hIG3e1ww4Ilk/nQT74VoACxYWq+Bn375MvIElPvvOCezT2NFs3Hi/2WJYNdHw7Dzo2Fyk4qjAZQPtAopPHT7lZyKfQjKD9YaJdz2KSt+Ie/g6fcG4JE3TlSYZ0DqAHK81hTu5c+l2Ieg/KFVyuCuq+bhF/IGHn3jBLx9zFX+IgDZC5Ab2j63DFZ+splYRhVi1QUW/Hr63X5w7DpSxh5BmmgAvFcCFQUP3XElrLxoLrGEKsdtlzRiIkBhgWNnd1XfC3E1KABLGw3w1+9+lhg/wRmhQfvKhfDi9z4NVoOqShWAPBEAiquFbvxLrQby1BOc/XzM0cKL370aewTlxQCkKzBn4+dS5TcVTm8QBkc9MDDqhUAoAs4p7batdTVAUVKw1umhoa4GTHqa92eEo3H4xeO74OSwu2Lu+c2fvgi/ZgN0X7r7RvB9GfMGweULTXucUaeGWj0Ncy0GWNRkBpWCytkb+OO6S7AuUG0hQZ57AqbL2vhjTAIOdPfDoRNDuNZ+JgyMevCfxwecmYdIrYAl8+qhZVEjyGXcbit6YH9w+8qKIYG7br4CrrgoN4EVGfqeD3pgf3d/zvciSwToGtDf+QKFBNYaJXzvrweEfaPTQiQAIcV3Kgoeuv0KzsafNfx9H+Ve548IA70fvZZfMI8zESASuPOmyzEJoJWv2owfGT16He6dfcEOIg70emnfIUwA1y9fwvuabrukEf8peBLIEyT5OInZ/iW7L6m1K8NOQXypX995FaxY3MDp2OODTnj21f3QN5S/FXhw1Asf9QyCQauCGq2a9XgdrYT6Wh2883Fv1Rg/cvER6SHjR6t/vuELRrA3gc6PSJaPR3B+gw4Lg7s+HBLk/Y7JaNCLfbtHu57qEgYBXPNlwRDArSvmwzc+18Lp2Nf3H4XX3z8KyWT+RUx0ziMnR7F30VRvZD0eEQBavYZd/rKL+dFKy8fV/81TXbiNejE8HvQZiAgQ4fDRCRAJIOztcQmTACT+vBCAWJCBSa6uv0LKub4fuYnI7S800Gegz+K6kuYqZJUCaNXnI/ghQ9zwh7/nxd3nC/SZ6LO5/hZYE1i1SKDZgfzZmriS4pmf/sdlOP7nYvyHThTPvUOfxeXBQ8Y/WwW9WKjV07B21SWcj39i57vw6ydfK6nOgT4bXccjO/Zwfs+v1l5clnUCxSWAVOp0FqBEL6tODrdetoCT219M459MAuiz2YDc6docUorFxre+ZOfkrSCjQ4bPZ+UtNPZ80IO9AS5kpFXK4OF1lwjPAchTHUDFeABtq9l/pOODzqK4/TOFA+gauMTVQo/7uYhq2TqH/SW85+fCyWE358zL0gYdDgeIB3BOD6D0sf/KixpnFk6YhCBWIXQN6FpmwsWLGgWrBSDvhKvoh1xtIdc3ZEmAkz5z9Xyw1qhO73ot5SuPNpfXvQCluh/XX2hl3duPVt9YvPRtr9E1sHkhyPgRCQh19edCTijWFuLKPx0JcNEE8N6BVYsqzf7zFQKUtinoqoubWFf/2RT55BvoWti8gE8sFt7GpcU2C6d8P4qxhRTzc7le9GLDbZc2wvkWNQjDDSB7ATJIJlj39+cS9yOPYu1nL2Wt5kOG/MSL77CWDk93TcsvmDdjGCA0cHH9x7xBvPrzxWzKiKczaD5Kf9ZjWdRkZhVg77rmPPjuE/uJBjC9BlB8JlyxkD1Pm4vqf/UnzuNUyouOQcfyBZdrQiuukGJ/LqT06HNv8U71cfUsuAKdi++9Q9eMrp3dC5grjLRgSlAhQOmwYtHMP7TTG+S9OlvramB+g4nz8ehY9B4+QNfkZCmBRStSOa3+3X0jORX53HnT5Xm/3lzOia6dSyjw9avnEw/gLDoqUSh0/tyZDXVwfNceH1yVw4qey3vYri2XHW2FApcVmq/bDeOiYiHqHtA5c0mn7tj9AScvoPRKINEAMrE6NTOHDYx6eZ2vZVFjTnv70XvQe/noDejaWhae260WSiqQS1oyl0096JxTPYsYk4Ctz7/FO2Mjp6TQeuPlZ4Rt6Nwv7TvEKyTJbkueifC0ShmsWlYPOwW6WagkGkCpcgBL583sJsd5PEjoIZpJmGMDei86B1cEQpEZ/73RXCOIh4RLRoKL6zwVa1ddchaxvP7+0ZzSteg96L1TCYZPuXIWXDIYq5aVTp9JC1MDKA0FsOX/B3iEANiAZbk7Rei9fAhkapchoXoAbFoEWjX5xv4ovJm6yjq9wVmVaaP3TtVVcmkOku0rMBMuW1ArgGoAQRFACZBM5JVIZnLHOYcQCxsrauAIiqXZYvRcV/+peOP9o7O+3unOkYsXwPadrAZVRWwSymMhEEElgksmgm/FH1qVp573+KCTl7c2k8c3db9Ftk0YH3T3jbAek/ECSoWUsDSAknhB4vxpmP5QFA4cmX3pKjoH37Sj0D2AmRCOxnnV+59ry/PreVj9ZzoX1xLmyWEAm3iYbRpSEhFAmHUAxWcBNmMz1XBX9LmU6M4oRPEsOWarHRBCj0C2ghouK+VkTLfdGd2zfJJmtj/jVCLj07mIy3dbWioCEFoIUMoA4ODxmUUjjVrJ3YDjs9szgAmEh4JNsWQM+kc8JX9AlHIZ60rJx5uYaoT58ry4eGJ8ey2wfbdGg6pk+l+KaADjDxDDtsrq+T043f2sFXrTAb2H754DtmsTggfApqDzyf1P54bzJc3ZkDnfjktsBJARAct7P2DZ9wP4uG/mBhsNdfxz6bmo0bm8h+3aymFWwLmGdkwXSkwV4gZHvQXtzoTOPTilEIzPPoFIjBHujSd1ABns7Z75ATLpad5puemU5JmQi4KNromt4pBvfC1k/MfKT00bMhUa033GdNdSXhBiHUCJ6iH2HmZfQZbMq+f9dXBFGgdBEB2Ti4LN5ZpK0T13aszOBi5hClpxp4YSaHXOR9qPC5lP9TLQteRtp2UqWc72n6+9AKnSeQESCex65wisvHThOQ9pWdTIe7Xxh6Kw+ZnXC3bZLSxba8uhmw5B+ccAedUASlUUuXN/34yXx7dEt9DgUnL8/uGTJb9OLgIfl9w68mSm6hnIA7LWFX6vA/qMqd4WupZ8eVdpkaToTbAFqgGUDjv/PcCaR8az+qjSb35E18C2+men2VQS/rrrvWmJsBhky+VaqhUVQQD+aAJ2/us4qxfAtxCkEEDXwLb6I+Mvl0GhbHUCk72AqfX1DXX6nPQZPjpLw5RUK59BpEadmhAA9xigdE1BUxIZ/OyVQdbj5jeYWFffQgJ9NpdOQ1yaUgglDOCz0266eYB8t1Dz8bSmrv7os/ncWzYR9ONBX9k3BRWXs/2j+CuqMoG/5jw4NeqGR/++l/U9V198XkFXnZlWI/TZbHhp36GCTMvNFWx5fj4EgL7X1L32+dqFeRbZTrMrk++9ZcsU+CIJSItEJXjwyV4AiCt04DcsgKRYBoaBvaB2H4NNf3uDU005csOLSQLos7iEH3xXqGKArRiJb9/C6YwQrdT53EKNzjV19Z+OfNjA1pDl9eMBCMpNwEiURAMolv0nZGoI6JshpjCCduRD0A0fAHEiY/SBSBy+/9sdnGPxYoQD6DO4ag9P7HxXcLE/GwHwnb1/LpLLpbPyOb28ac7Fdxw5+k5sGQ5nfy+ofX0QkyghJDdCUkyVUy+Q/BFAClIFjwBQnB/SNEBIYwV5cBhqBvaCLHp2v7+X/nUMdr1zmNuDcvF58IWrlhUsBkXn5uL2Z4W/XBprFBpcqhH5egHoe049by6dlafDdB2d0WfxvbdcWqC/3T0EUiYEWvcRkEU9EKK0EKG0kBJJihABVNFegKi6Dvw1zXilR+6+yts74/E/+P3f4eAJbkovelhab7w8rykpdC50Tq6txbmOpyqVCMgWN+fS03+64SFX5cELmO4cuQwqYftOA2MB/MpCERoFnesoQCIGQYURYrICT3iuhjoARq4Bn2EhJMQy0A/tB83YYRCl2Mtz/eEYfP/3z3PeY54tFLr7lqtzjkezcWf2HFx7C2YHUgg57cfmBSB3OZe+e1NXZZOenpU2g947dX8F+gy+m6oW2yysGYC3p9mDIkonQR0YBI33OKCnNKCsBUYiF7QGIM2vY5IfJKUKCNMWSIvEoHb3gCLIv2rrUO8orO14HJ7ovJ2zQWeJAL2c3iDu2z8w6sWdhafWrZtqaNxrwFqnx7v6cmklnh2fLfRdf+8fPsm6Il6/fElO47imthxH8fvxQWdObcGnxv7o/hZi9UfY9f65vVBJIgoaby/EFXqIqEwQl6lAEQ+AJMUIztYENRcgLZJARG2CmNIAam8fKH0DnFb8c5LASSdvEpi8GuFe/wsLIxSWi/HDpMKkmUQxZDQ7dn/AK82GzvnSvkNn7NFHJHz3F6/Oy3XznQkA47l/NgLwh+Owc38v67moqBdksQDEVAYIqkwgT4RBzgRBlE4L5rfNkwYw+8lAMYUBfIYF+FyG/n2g8vTOyvjPIIENf+KsCRQD2bn05WD8k11pNuQ6iacQdQ/onLmkVO+6+QrWY57e0835uRalkqAIOrE+kEomIaAwQUyqmr0DkEpVhgaQkKnBZzgP4hQN2pGPQDP6MRb78pk1Odg3Cms7/5dzdqDQq2m5GT9wHJaRy1BOGB8omm/kck507VwyGo/s+oi/oSUZoH39QHtPAiOSQUBRCwlx6ec+5CVfUbv8JntAWmtXhke5Ow0SCqf1oioDqHx9WOCTJArXTTfGJODvbx2EgREPrDjfVrKNQfW1OrigeQ4sW9CA/47cakomBV8wImgCQK40co/ZxD5kQMhbYBJJXqs1l3Pz8Vb4Fv2g36H9P69lzf3vfL8X/tx1MPcVNxUHedSDw4CI0oBrByQphldYEJPRoE2M7Xa983xX2WkAKM6PqYxYHFH6B0A78kFeXH2ueOb1D+Gl947Afa0r4Vb7RSUxpqxqPjXXjLwCly80MZkm+3chhQFs8TEy5LWrLuEtCKLjS5kKRa4/lwYojh352Ukoj7iwRhBRm3C2QMGEgEqEiq4PSPOmAXBQJuMKPVb3pbEAzueLE6Xpn4/ThL97HjY9/Tqsv+3TsPKShYKY5iN0Ysju6GMjAfTvXEdtCwHXL1/CqfDn6Te74eBJV94+V5ROgio4DIqIC3vDMQUiggBQiQi7CJAqo+nAKM5HTJcWiUHjPARUeEwQP/yA0wff/91zcL9aAdd/aiGsvGQRrLx0keAe0JmIoX/Eg13o7r4RTkU7s8WO3R9wmhaMVlR0bULXOhBZcRkd5g/HwbHjXwW5BnGSwWlDRq6BsNoCjFQBciYE0mS8TDwAmL5OOS2WQFhtBoaiQekfZK3gKxX8wSg80/Vv/EJfYsXSJlhxgQ2W2MygVcph6TyLIOf9nasAZzIZ5JsYsptquCj+P7h9paAFT3TvuM4NfGTXhzDgDBT0emTRAOiiAYiqTRBWGkAmiWOP4KywIC1EApgC9CWiSgPIQ04wjH5c1Dh/lo4Z7D14Er8mQ6OkMBEstVnAWqvN/F2gxLCoyTytmp0vYsh6AWyiHfIShEoC2ZWfS0sz5PY7thevi5Ai5AR52A1h2gwBuQnkyUz9gGA9gFTqdFNQRq7FboyECeHdetNt2ClHBCIx2HewD78mM7HVpIMGkw57DOjv1lodrFg2T5DfgSsxcJmL95unumDD//kCqwGhf0fHPbJjj2A0ARTzc135kev/9f95segNL0TpBC4rTowLhXFFLa4mlCZjU2xOQB5AQG+DpEQOtPsY3rFX8RABDIz58GvfoUkeQzoNVpO+rIkBEUA2hkfEkP17lhjQ/0NG/e0vX8PpM+66+QrsMfDdlptPIDJC13Exj23g33v4tTM2/RQbUiYEGm9oQkCXpFUC1QDGU3w1p94rmbovHGIQlT0xIGPhQgz7u/s5G1RWbX/0ubeKPvNgsc0Cd950Oa/ZgMjt3/n+CUH8HlTUi8kgoJuX7zVs9mi6+/c2iUy+xUfV2+NQRR5A3pgzQwxLbHVYY1g6z4KJYen8+or9yigcKFQZ8GQgg0erPt+eBU+/2Y1Xf6Eg6wFQ6Sjo4kNdSSa2rm/zN3oFQQBZNN/9e3uM0m0JyOps4ngYq/6VogGUBKk0JoOGSaJjpRFDtmov3yJhdhZhLr0KhGT8OIWuMkFaKgMNM9orj/vW9Wz+RpegPICpOO/u324IyC3rw9IaPRVy4i295ZMFKA+PodKIIdsfICtC5oJsrQQy+lp9bg05hGL8KJwO02ZIUBpQJTxeTWx409HN39yQ92i1UF+g6Q6HXqpWOwIyc2tETOOyX5W3jxhvQZ+a1Dgx6CZCiaU2M1jNNWX1NcLR+AQRoBDhXJ2JjTr1xB4C5OJzSemxxfzFTPedC2jFjykNoEwGQMWMbU2H/O19j7UXxJUueE/j8/6f37ZE5DpHWGqwJ9IS3L1XLpBKwOrhhTRcdoENi49Wk/60AFlmxFAo+MMx+O4fXyu54JepBKwHGcRBlXB3yRlPZ8/mb3cV8jOL1tT8vLt/2xqUGjuC8jqbJBYo+O4/AnZEVWa4tGURNKsZaDSqYcX5c6HRoK4qYvj45Bh8fdOLJU31ZRvepqQKoGOjvXTC1Xl08ze3FuOzizrVAIUFYoWqLUoZOvxUHQ4L1N5eog+UytXW2yBFqXFDyzOQYOCy8xvBaqQrlhjQqv/Irg/hv7e9W9I4P9MBywja+Cgo4u7OVDS8sVDufskJYBIR2EQqjSNAmVfHxCpMAogMCARCAOeAlhLB+bY6WNpkgkaDCv+J/luI5dAz4ek3u7Hhl3LVR0aPjF+eDIEmPrI9HQ6gOL/om2VEpfwhmu/6tT0u1zl88voWUSIOtOsYSRsWkwBqEAGocO35bFAuxIAM/5Gd/8Zuf6mQkKmxug9iCehiQweomK+955HCxvmCJYAsFnz9f9qCCnNHiKrVy8IenDYk+kDhEdLbII0IIOwsyPkxMTTVwVJb6YgBufpPv9END+/6d2njfLEMF/IkKRWo42NeOjrSeezh72ws9TMgEsrD2HSHQy+RKzuCVG1biKrFKUMUFhB9oLAhQDoPHgBvYpCL4Py5Rlhqq4Pz59aC1ajGWYp8ARn624cGsaq/81+l3YKeFolxB6yo0gDKhB80sZGNyViks5hxflkQwGR9IK3UbQnKzThtiIiAlBUXmgBGS38x6RQ0GmlYsdQKjbUaWLG0EbQqChMEm7H3jwXgYN8Ydu2R4ZdypZ+MzFyAOpzWo2MjXaKkr73vj+0HhPQMiIT6cDbf5VgdpWodAbkZlxWjsEAaDxKrzSsBNEGahwhIwA0Tg20kMrTi9yriY+09j7RvF+K1ioR+M5vv2rQhoKhfH6GM42XFx0hYkFcPgBBA/tx9CTb8hFwDyrjLq467Np344zc2CPmaJUK/qZ79L3bVLr18syoZtCTkmpaAvhlAJCbZgjyAUegBJDKQMmFyM2aJmNIAQd1ckKejoIsMbpVGXGt7H/32dqFft6icbnLzHQ57TFnTEZTX2VNpEdBj3YQIZusByAqXBagGJGRqCGnmgAQSQEeGD8hjvvaex9q7yuX6ReV40+ff6WiNyIyOoHKOPlNW3E2akOQcAhQ/C1AJOF2+Kwc6csqrZFztxx9t31pu30NSjjffs3/nAeMFV29WJrwxkURm9xkWQ1osxYMYRekUeTpJCFDQOD+mroWgthGUCS9owyc7JfHg2t6t7XvL8fuIyv0HwWlDqdIRUDWsZsQKoN09JG3I2QPIZgGIB8AFma48ZpAlI6CLDHSlmei6UpTvEgKYVh/4pT1G1WzxqxptokQcZwuIPsAlBCBZAC5xfpi2AIjFoA3398rjnnU9j32/qxK+m6jSfqz5d/yqLaQwd4SVFr004sH9CYk+QAgg1zg/oqrLpPWiLi8dGeg8/tj3NlbSd5RU2o/m+WDX3toLlm1WMSFFgtKuCOrn47ShNB4k+sB0GoCYwt1mCc5EVFWHRT4qFYGa0PGt0vjJG3ofu7er0r6nqJJ/xKb//EVLUql3hJQWexJkOCygSDeiMzyAFKUCJUkDniZFSpMZYJuKgToy3CWJeNv7/vKDA5X6fUXV8KM2f/Wh1WGlwRFSziFlxdMQAKkDAEhKFBDB5btSUEVHelWRkc7jf/rB1kr/3qJq+pGb7ti0Iawwr48qjKRb8WQCqOIsQFokwXMsY0oDqCKjXlV0ZBN43Rv7dnRWhYIsqrYfvOnLD9iSSm1HRFXfGpPSeHaB0j9YpQTQNN4RqDoJABk9Mn45EwB1eGi7KOJv73vynt5qugeiamX+pq/80p6Q6x0hVX1LCsRAjx2uurQh35ZglQKc1tM0gCTNIMM/II152/v+/P2uarQDUbXHfvO/9ovWsNzkCKmt+my34mpJG1YbAeC0nroed+VRhYe86uhwezXE+TNBUu0E4Pn3SweMjS2blalgLCVT2P3Gxfj/S2OVnzZklHpISyo/DZgp3zVBSDsXFIwXdP7ejVL3qTW9T/1kb7U//1XvAUzVB1IK9ZYA3WRnxEpcRKSo4LLiasgCxOV63H1XmooBHTrVJYl411VbnE8IgD8R2BlVDSICXFZMu3sqUh+o5CwAHqqpNuG0njo02CuPuNr7nvjhdvJ0EwLgTgRf+XlbSNXQEVXW4bShyttXUd2KK5EA0iLxRFceRWTUqwkObjrxxA83kKeZaAC84fvw5b2mxmWb1UmfJa7Qt2TKiiUV4w0wCj3uW1cpGkBUXQchrRWoZBg0gf6tcnf/Db1/+8mL5EkmHsDsvYH//K+WpKzGEVTPsSdFMlxEVO5DTk/XAZR3FiA7VFOaioIyPNpFRVydfU/e00WeWkIA+SeCtT9bHVNaHCGVxSZmIlgoLNey4nJPA54xVDM40CsPjSDD30qeUhICFC4s+OiVw8a5LY/JU4FYSkK1BIyLFGmxFKQxf9mlDeN4N2D5dQTKDNU0Q0jbCKqoE2j/iU6Zb3Rd3zP37SVPKPEAiucNfLnDlpDVOMLqhtVxmWZimlE5eQDl1hNwoitPIgzqQN92KeNp73uyk6T1CAGUkgjut8cpoyOksbakcVlxeXQrLicCmBiqKRIBHejtpWLudX1P3kfifEIAAiKC2/6rNayZ4wir5+hluBtRj6DLisuBAFCcH1ZbIEGpQBU65VUFBzv7nvrJRvK0EQ1AePrAwVcPmOa2bJYzHkWKUq+YKCuOhwSpDzAKHQAuBQ4LMM4X4+67Ic0coJgAaLxHN8r9o2v6nu0gqz7xAMrAG7i5w5ZU6bYEdTY7I1XhbIHQuhULtSfgRFovGQFVcKBLFnO19z3deYA8VYQAyo8IbrnfHlObtoQ0jThtqPL2CkYfwGlAmRqUYWEQQFKSHaopBXWgv1cedbb3PXUfKd8lBFARRLAhqJu7Pqoy6+WhMUEMORVKHQBO69EWYOQ0KMIjXkVoeNPgk6R8l2gAlaQPHHqtq27uRZvlMZeFUepbgobzSj7k9HQpcOk0gJjSACHdXJAmo6DxH9uq8A2v7X/mJ2TVJx5AResDLTGN2RFVm+1JMYXLikvRrbiUm4EyXXnmgDgVB1Vg4AB295/pJAIfIYAqIoIv/r+tEdrSEdI02qTxYNGHnJaCAHBaT9MASQkF6sBJrzI40t737E9J+S4JAaoyLDhQa/vEY1TUHQOJ1O43LS3qkFNGoRvvCBQuQpw/ntbTNoIiOga0p6dTHnav7du+gZTvEg+AoOnmDltCrnGEdY2r45R2vFvxQBE8gMKLgHGFHot8sngIaN/xLkk0uK5vBynfJQRAMB0R2GNqgyOob24RJRmgXYUbchquKSwBoDg/qjZBSiwF2tvTKw+5keGTOJ8QAAEbGr/Y0RahGzvCmgY9FfHitGG+uxFNeAB5rgNIiWUQUdcBQ9GgCA171b7eTf3bOklaj2gABFzhP7R7r8x28WZ9xKlIytQr/LVLMFvnc8jpRBownj8NAK34IU0DyOIB0LkOb42GXTeMbu8kXXmIB0CQK8w3/9AmVpi3hLWN9qREjrcd56NbcT6zAJnyXQtIE2FQBoe7xOGh9lM7fkbKdwkBEOQL1pt/sjqutjjCuqbxbkSzG3KaDwJISsfLd8USUPoHexXBwc7+HfeTtB4hAIKC6QM337chpJ+3Pqq26OXhMUwEuZQVnyYA/hpApiuPCWJKIygDA16lf2hTMDW60bdjk5f8QoQACAoM3afX61V1DY4oXd+KjdA/AGpvH69zhPRNOe0GRJ+HjJ+KekHlPbk9GXS3j+z8OUnrEQIgKDYaPv9jO6Mxd0S0jXbkhvMZcoq3A8u4ZwEyXXks+O9qz/ED0qCzffAf/0XSeoQACEoeFtx4X2uUtjhC+nn6TFkx+5BTrh2BJrryyFSgDPR7Vb6Bzv7n7yddeSoAJA1YIfAfef2AzHjeZk3SFxOJZXZ/3fmsZcWMQg8ww27AzFDNWghqG0EeGQPadXhjbOTkmtFdvyCrPvEACIQK86of2kSqGkfYOH81cttpd8+03Yhm8gBw+a7KBJJEGFTevq50YGwdifMJARCUlT7wQ3tSWbclaFxgE6USeNvxZH1gOgKYGKopEoPK29tLhYbbB/7+ANmfTwiAoGz1gc//uC2sndsR0Vv1iACy3YrDE1kA58RQTYaiQR4c8tLunk39/3iAlO8SDYCg7PWBo2/spYzNm7VxtyKp0K0IGhbgbkRpsRRAJMWrfkhrBVnMD2r3sa3M8PEbRl96iJTvEg+AoNIw53P3tqSUekdY12THIuD4/gKF92QXFRjuHNz5cyLwEQIgqHRYb7hndUxjdqRBoqeCA+2n/vlzUr5bhfj/AwAA//8yKdUpPaR1IAAAAABJRU5ErkJggg==;" vertex="1" parent="1">
          <mxGeometry x="47.5" y="137.5" width="65" height="65" as="geometry" />
        </mxCell>
        <mxCell id="1PGoATMkmUiRRUNQcuIm-74" value="&lt;div style=&quot;text-align: center;&quot;&gt;&lt;span style=&quot;background-color: initial; text-wrap: nowrap;&quot;&gt;&lt;font face=&quot;Architects Daughter&quot;&gt;AVD Bicep deployment&lt;/font&gt;&lt;/span&gt;&lt;/div&gt;" style="text;whiteSpace=wrap;html=1;" vertex="1" parent="1">
          <mxGeometry x="10" y="100" width="160" height="50" as="geometry" />
        </mxCell>
        <mxCell id="1PGoATMkmUiRRUNQcuIm-76" value="" style="dashed=0;outlineConnect=0;html=1;align=center;labelPosition=center;verticalLabelPosition=bottom;verticalAlign=top;shape=mxgraph.weblogos.json_2" vertex="1" parent="1">
          <mxGeometry x="112.5" y="254.8" width="80.4" height="25.200000000000003" as="geometry" />
        </mxCell>
        <mxCell id="1PGoATMkmUiRRUNQcuIm-78" value="" style="endArrow=classic;html=1;rounded=0;sketch=1;curveFitting=1;jiggle=2;" edge="1" parent="1">
          <mxGeometry width="50" height="50" relative="1" as="geometry">
            <mxPoint x="260" y="210" as="sourcePoint" />
            <mxPoint x="200" y="250" as="targetPoint" />
          </mxGeometry>
        </mxCell>
        <mxCell id="1PGoATMkmUiRRUNQcuIm-79" value="resources" style="text;html=1;align=center;verticalAlign=middle;resizable=0;points=[];autosize=1;strokeColor=none;fillColor=none;fontFamily=Architects Daughter;fontSource=https%3A%2F%2Ffonts.googleapis.com%2Fcss%3Ffamily%3DArchitects%2BDaughter;" vertex="1" parent="1">
          <mxGeometry x="160" y="208" width="80" height="30" as="geometry" />
        </mxCell>
        <mxCell id="1PGoATMkmUiRRUNQcuIm-82" value="" style="endArrow=classic;html=1;rounded=0;sketch=1;curveFitting=1;jiggle=2;" edge="1" parent="1">
          <mxGeometry width="50" height="50" relative="1" as="geometry">
            <mxPoint x="170" y="300" as="sourcePoint" />
            <mxPoint x="200" y="320" as="targetPoint" />
          </mxGeometry>
        </mxCell>
        <mxCell id="1PGoATMkmUiRRUNQcuIm-85" value="" style="image;aspect=fixed;html=1;points=[];align=center;fontSize=12;image=img/lib/azure2/management_governance/Diagnostics_Settings.svg;" vertex="1" parent="1">
          <mxGeometry x="459" y="137.5" width="22.57" height="27" as="geometry" />
        </mxCell>
      </root>
    </mxGraphModel>
  </diagram>
</mxfile>
